<svg width="563pt" height="500pt" viewBox="0.00 0.00 563.00 500.00" xmlns="http://www.w3.org/2000/svg" xmlns:xlink="http://www.w3.org/1999/xlink">
    <g id="graph1" class="graph" transform="scale(1 1) rotate(0) translate(4 496)">
        <title>structs</title>
        <polygon fill="white" stroke="white" points="-4,5 -4,-496 560,-496 560,5 -4,5"></polygon>
        <!-- 6 -->
        <g id="node1" class="node"><title>6</title>
            <polyline fill="none" stroke="black" points="382.359,-1.2 543.641,-1.2 "></polyline>
            <path fill="none" stroke="black" d="M543.641,-1.2C549.641,-1.2 555.641,-7.2 555.641,-13.2"></path>
            <polyline fill="none" stroke="black" points="555.641,-13.2 555.641,-38.8 "></polyline>
            <path fill="none" stroke="black" d="M555.641,-38.8C555.641,-44.8 549.641,-50.8 543.641,-50.8"></path>
            <polyline fill="none" stroke="black" points="543.641,-50.8 382.359,-50.8 "></polyline>
            <path fill="none" stroke="black" d="M382.359,-50.8C376.359,-50.8 370.359,-44.8 370.359,-38.8"></path>
            <polyline fill="none" stroke="black" points="370.359,-38.8 370.359,-13.2 "></polyline>
            <path fill="none" stroke="black" d="M370.359,-13.2C370.359,-7.2 376.359,-1.2 382.359,-1.2"></path>
            <text text-anchor="middle" x="386.135" y="-21.8" font-family="Times,serif" font-size="14.00">fib</text>
            <polyline fill="none" stroke="black" points="401.91,-1.2 401.91,-50.8 "></polyline>
            <text text-anchor="middle" x="425.463" y="-34.2" font-family="Times,serif" font-size="14.00">index</text>
            <polyline fill="none" stroke="black" points="401.91,-26 449.015,-26 "></polyline>
            <text text-anchor="middle" x="425.463" y="-9.4" font-family="Times,serif" font-size="14.00">0</text>
            <polyline fill="none" stroke="black" points="449.015,-1.2 449.015,-50.8 "></polyline>
            <text text-anchor="middle" x="469.453" y="-34.2" font-family="Times,serif" font-size="14.00">prev</text>
            <polyline fill="none" stroke="black" points="449.015,-26 489.891,-26 "></polyline>
            <text text-anchor="middle" x="469.453" y="-9.4" font-family="Times,serif" font-size="14.00">(nil)</text>
            <polyline fill="none" stroke="black" points="489.891,-1.2 489.891,-50.8 "></polyline>
            <text text-anchor="middle" x="522.766" y="-34.2" font-family="Times,serif" font-size="14.00">prevprev</text>
            <polyline fill="none" stroke="black" points="489.891,-26 555.641,-26 "></polyline>
            <text text-anchor="middle" x="522.766" y="-9.4" font-family="Times,serif" font-size="14.00">(nil)</text>
        </g>
        <!-- 5 -->
        <g id="node2" class="node"><title>5</title>
            <polyline fill="none" stroke="black" points="242.359,-89.2 403.641,-89.2 "></polyline>
            <path fill="none" stroke="black" d="M403.641,-89.2C409.641,-89.2 415.641,-95.2 415.641,-101.2"></path>
            <polyline fill="none" stroke="black" points="415.641,-101.2 415.641,-126.8 "></polyline>
            <path fill="none" stroke="black" d="M415.641,-126.8C415.641,-132.8 409.641,-138.8 403.641,-138.8"></path>
            <polyline fill="none" stroke="black" points="403.641,-138.8 242.359,-138.8 "></polyline>
            <path fill="none" stroke="black" d="M242.359,-138.8C236.359,-138.8 230.359,-132.8 230.359,-126.8"></path>
            <polyline fill="none" stroke="black" points="230.359,-126.8 230.359,-101.2 "></polyline>
            <path fill="none" stroke="black" d="M230.359,-101.2C230.359,-95.2 236.359,-89.2 242.359,-89.2"></path>
            <text text-anchor="middle" x="246.135" y="-109.8" font-family="Times,serif" font-size="14.00">fib</text>
            <polyline fill="none" stroke="black" points="261.91,-89.2 261.91,-138.8 "></polyline>
            <text text-anchor="middle" x="285.463" y="-122.2" font-family="Times,serif" font-size="14.00">index</text>
            <polyline fill="none" stroke="black" points="261.91,-114 309.015,-114 "></polyline>
            <text text-anchor="middle" x="285.463" y="-97.4" font-family="Times,serif" font-size="14.00">1</text>
            <polyline fill="none" stroke="black" points="309.015,-89.2 309.015,-138.8 "></polyline>
            <text text-anchor="middle" x="329.453" y="-109.8" font-family="Times,serif" font-size="14.00">prev</text>
            <polyline fill="none" stroke="black" points="349.891,-89.2 349.891,-138.8 "></polyline>
            <text text-anchor="middle" x="382.766" y="-122.2" font-family="Times,serif" font-size="14.00">prevprev</text>
            <polyline fill="none" stroke="black" points="349.891,-114 415.641,-114 "></polyline>
            <text text-anchor="middle" x="382.766" y="-97.4" font-family="Times,serif" font-size="14.00">(nil)</text>
        </g>
        <!-- 5&#45;&gt;6 -->
        <g id="edge2" class="edge"><title>5:f1-&gt;6:name</title>
            <path fill="none" stroke="black" d="M329,-88C329,-62.2506 371.096,-76.2995 382.935,-61.7433"></path>
            <polygon fill="black" stroke="black" points="386.338,-62.5894 386,-52 379.661,-60.4891 386.338,-62.5894"></polygon>
        </g>
        <!-- 4 -->
        <g id="node4" class="node"><title>4</title>
            <polyline fill="none" stroke="black" points="294.359,-177.2 455.641,-177.2 "></polyline>
            <path fill="none" stroke="black" d="M455.641,-177.2C461.641,-177.2 467.641,-183.2 467.641,-189.2"></path>
            <polyline fill="none" stroke="black" points="467.641,-189.2 467.641,-214.8 "></polyline>
            <path fill="none" stroke="black" d="M467.641,-214.8C467.641,-220.8 461.641,-226.8 455.641,-226.8"></path>
            <polyline fill="none" stroke="black" points="455.641,-226.8 294.359,-226.8 "></polyline>
            <path fill="none" stroke="black" d="M294.359,-226.8C288.359,-226.8 282.359,-220.8 282.359,-214.8"></path>
            <polyline fill="none" stroke="black" points="282.359,-214.8 282.359,-189.2 "></polyline>
            <path fill="none" stroke="black" d="M282.359,-189.2C282.359,-183.2 288.359,-177.2 294.359,-177.2"></path>
            <text text-anchor="middle" x="298.135" y="-197.8" font-family="Times,serif" font-size="14.00">fib</text>
            <polyline fill="none" stroke="black" points="313.91,-177.2 313.91,-226.8 "></polyline>
            <text text-anchor="middle" x="337.463" y="-210.2" font-family="Times,serif" font-size="14.00">index</text>
            <polyline fill="none" stroke="black" points="313.91,-202 361.015,-202 "></polyline>
            <text text-anchor="middle" x="337.463" y="-185.4" font-family="Times,serif" font-size="14.00">2</text>
            <polyline fill="none" stroke="black" points="361.015,-177.2 361.015,-226.8 "></polyline>
            <text text-anchor="middle" x="381.453" y="-197.8" font-family="Times,serif" font-size="14.00">prev</text>
            <polyline fill="none" stroke="black" points="401.891,-177.2 401.891,-226.8 "></polyline>
            <text text-anchor="middle" x="434.766" y="-197.8" font-family="Times,serif" font-size="14.00">prevprev</text>
        </g>
        <!-- 4&#45;&gt;6 -->
        <g id="edge6" class="edge"><title>4:f2-&gt;6:name</title>
            <path fill="none" stroke="black" d="M435,-176C435,-136.585 441.794,-123.17 424,-88 415.385,-70.9713 395.333,-73.3104 388.405,-61.8589"></path>
            <polygon fill="black" stroke="black" points="391.771,-60.8854 386,-52 384.97,-62.5447 391.771,-60.8854"></polygon>
        </g>
        <!-- 4&#45;&gt;5 -->
        <g id="edge4" class="edge"><title>4:f1-&gt;5:name</title>
            <path fill="none" stroke="black" d="M381,-176C381,-117.784 262.348,-191.66 247.516,-149.955"></path>
            <polygon fill="black" stroke="black" points="250.966,-149.359 246,-140 244.046,-150.413 250.966,-149.359"></polygon>
        </g>
        <!-- 3 -->
        <g id="node7" class="node"><title>3</title>
            <polyline fill="none" stroke="black" points="105.359,-265.2 266.641,-265.2 "></polyline>
            <path fill="none" stroke="black" d="M266.641,-265.2C272.641,-265.2 278.641,-271.2 278.641,-277.2"></path>
            <polyline fill="none" stroke="black" points="278.641,-277.2 278.641,-302.8 "></polyline>
            <path fill="none" stroke="black" d="M278.641,-302.8C278.641,-308.8 272.641,-314.8 266.641,-314.8"></path>
            <polyline fill="none" stroke="black" points="266.641,-314.8 105.359,-314.8 "></polyline>
            <path fill="none" stroke="black" d="M105.359,-314.8C99.359,-314.8 93.359,-308.8 93.359,-302.8"></path>
            <polyline fill="none" stroke="black" points="93.359,-302.8 93.359,-277.2 "></polyline>
            <path fill="none" stroke="black" d="M93.359,-277.2C93.359,-271.2 99.359,-265.2 105.359,-265.2"></path>
            <text text-anchor="middle" x="109.135" y="-285.8" font-family="Times,serif" font-size="14.00">fib</text>
            <polyline fill="none" stroke="black" points="124.91,-265.2 124.91,-314.8 "></polyline>
            <text text-anchor="middle" x="148.463" y="-298.2" font-family="Times,serif" font-size="14.00">index</text>
            <polyline fill="none" stroke="black" points="124.91,-290 172.015,-290 "></polyline>
            <text text-anchor="middle" x="148.463" y="-273.4" font-family="Times,serif" font-size="14.00">3</text>
            <polyline fill="none" stroke="black" points="172.015,-265.2 172.015,-314.8 "></polyline>
            <text text-anchor="middle" x="192.453" y="-285.8" font-family="Times,serif" font-size="14.00">prev</text>
            <polyline fill="none" stroke="black" points="212.891,-265.2 212.891,-314.8 "></polyline>
            <text text-anchor="middle" x="245.766" y="-285.8" font-family="Times,serif" font-size="14.00">prevprev</text>
        </g>
        <!-- 3&#45;&gt;5 -->
        <g id="edge10" class="edge"><title>3:f2-&gt;5:name</title>
            <path fill="none" stroke="black" d="M246,-264C246,-212.441 246,-197.059 246,-150.163"></path>
            <polygon fill="black" stroke="black" points="249.5,-150 246,-140 242.5,-150 249.5,-150"></polygon>
        </g>
        <!-- 3&#45;&gt;4 -->
        <g id="edge8" class="edge"><title>3:f1-&gt;4:name</title>
            <path fill="none" stroke="black" d="M192,-264C192,-218.327 281.323,-268.097 295.977,-238.083"></path>
            <polygon fill="black" stroke="black" points="299.464,-238.493 298,-228 292.601,-237.116 299.464,-238.493"></polygon>
        </g>
        <!-- 2 -->
        <g id="node10" class="node"><title>2</title>
            <polyline fill="none" stroke="black" points="22.359,-353.2 183.641,-353.2 "></polyline>
            <path fill="none" stroke="black" d="M183.641,-353.2C189.641,-353.2 195.641,-359.2 195.641,-365.2"></path>
            <polyline fill="none" stroke="black" points="195.641,-365.2 195.641,-390.8 "></polyline>
            <path fill="none" stroke="black" d="M195.641,-390.8C195.641,-396.8 189.641,-402.8 183.641,-402.8"></path>
            <polyline fill="none" stroke="black" points="183.641,-402.8 22.359,-402.8 "></polyline>
            <path fill="none" stroke="black" d="M22.359,-402.8C16.359,-402.8 10.359,-396.8 10.359,-390.8"></path>
            <polyline fill="none" stroke="black" points="10.359,-390.8 10.359,-365.2 "></polyline>
            <path fill="none" stroke="black" d="M10.359,-365.2C10.359,-359.2 16.359,-353.2 22.359,-353.2"></path>
            <text text-anchor="middle" x="26.1346" y="-373.8" font-family="Times,serif" font-size="14.00">fib</text>
            <polyline fill="none" stroke="black" points="41.9102,-353.2 41.9102,-402.8 "></polyline>
            <text text-anchor="middle" x="65.4628" y="-386.2" font-family="Times,serif" font-size="14.00">index</text>
            <polyline fill="none" stroke="black" points="41.9102,-378 89.0154,-378 "></polyline>
            <text text-anchor="middle" x="65.4628" y="-361.4" font-family="Times,serif" font-size="14.00">4</text>
            <polyline fill="none" stroke="black" points="89.0154,-353.2 89.0154,-402.8 "></polyline>
            <text text-anchor="middle" x="109.453" y="-373.8" font-family="Times,serif" font-size="14.00">prev</text>
            <polyline fill="none" stroke="black" points="129.891,-353.2 129.891,-402.8 "></polyline>
            <text text-anchor="middle" x="162.766" y="-373.8" font-family="Times,serif" font-size="14.00">prevprev</text>
        </g>
        <!-- 2&#45;&gt;4 -->
        <g id="edge14" class="edge"><title>2:f2-&gt;4:name</title>
            <path fill="none" stroke="black" d="M197,-378C245.573,-378 261.779,-357.512 287,-316 305.627,-285.341 299.459,-270.244 298.201,-238.061"></path>
            <polygon fill="black" stroke="black" points="301.699,-237.928 298,-228 294.7,-238.068 301.699,-237.928"></polygon>
        </g>
        <!-- 2&#45;&gt;3 -->
        <g id="edge12" class="edge"><title>2:f1-&gt;3:name</title>
            <path fill="none" stroke="black" d="M109,-352C109,-340 109,-334.75 109,-326.125"></path>
            <polygon fill="black" stroke="black" points="112.5,-326 109,-316 105.5,-326 112.5,-326"></polygon>
        </g>
        <!-- 1 -->
        <g id="node13" class="node"><title>1</title>
            <polyline fill="none" stroke="black" points="11.359,-441.2 172.641,-441.2 "></polyline>
            <path fill="none" stroke="black" d="M172.641,-441.2C178.641,-441.2 184.641,-447.2 184.641,-453.2"></path>
            <polyline fill="none" stroke="black" points="184.641,-453.2 184.641,-478.8 "></polyline>
            <path fill="none" stroke="black" d="M184.641,-478.8C184.641,-484.8 178.641,-490.8 172.641,-490.8"></path>
            <polyline fill="none" stroke="black" points="172.641,-490.8 11.359,-490.8 "></polyline>
            <path fill="none" stroke="black" d="M11.359,-490.8C5.359,-490.8 -0.641,-484.8 -0.641,-478.8"></path>
            <polyline fill="none" stroke="black" points="-0.641,-478.8 -0.641,-453.2 "></polyline>
            <path fill="none" stroke="black" d="M-0.641,-453.2C-0.641,-447.2 5.359,-441.2 11.359,-441.2"></path>
            <text text-anchor="middle" x="15.1346" y="-461.8" font-family="Times,serif" font-size="14.00">fib</text>
            <polyline fill="none" stroke="black" points="30.9102,-441.2 30.9102,-490.8 "></polyline>
            <text text-anchor="middle" x="54.4628" y="-474.2" font-family="Times,serif" font-size="14.00">index</text>
            <polyline fill="none" stroke="black" points="30.9102,-466 78.0154,-466 "></polyline>
            <text text-anchor="middle" x="54.4628" y="-449.4" font-family="Times,serif" font-size="14.00">5</text>
            <polyline fill="none" stroke="black" points="78.0154,-441.2 78.0154,-490.8 "></polyline>
            <text text-anchor="middle" x="98.453" y="-461.8" font-family="Times,serif" font-size="14.00">prev</text>
            <polyline fill="none" stroke="black" points="118.891,-441.2 118.891,-490.8 "></polyline>
            <text text-anchor="middle" x="151.766" y="-461.8" font-family="Times,serif" font-size="14.00">prevprev</text>
        </g>
        <!-- 1&#45;&gt;3 -->
        <g id="edge18" class="edge"><title>1:f2-&gt;3:name</title>
            <path fill="none" stroke="black" d="M186,-466C237.294,-466 233.144,-394.211 204,-352 180.651,-318.182 121.108,-353.505 110.597,-326.082"></path>
            <polygon fill="black" stroke="black" points="114.022,-325.329 109,-316 107.108,-326.425 114.022,-325.329"></polygon>
        </g>
        <!-- 1&#45;&gt;2 -->
        <g id="edge16" class="edge"><title>1:f1-&gt;2:name</title>
            <path fill="none" stroke="black" d="M98,-440C98,-408.416 41.8862,-432.424 28.7346,-413.869"></path>
            <polygon fill="black" stroke="black" points="32.0433,-412.702 26,-404 25.2975,-414.572 32.0433,-412.702"></polygon>
        </g>
    </g>
</svg>