<?xml version="1.0" encoding="UTF-8" standalone="no"?>
<!DOCTYPE svg PUBLIC "-//W3C//DTD SVG 1.1//EN"
        "http://www.w3.org/Graphics/SVG/1.1/DTD/svg11.dtd">
<!-- Generated by graphviz version 2.40.1 (20161225.0304)
 -->
<!-- Title: structs Pages: 1 -->
<svg width="720pt" height="492pt"
     viewBox="0.00 0.00 720.22 491.60" xmlns="http://www.w3.org/2000/svg" xmlns:xlink="http://www.w3.org/1999/xlink">
    <g id="graph0" class="graph" transform="scale(1 1) rotate(0) translate(4 487.6)">
        <title>structs</title>
        <polygon fill="#ffffff" stroke="transparent" points="-4,4 -4,-487.6 716.2238,-487.6 716.2238,4 -4,4"/>
        <!-- 6 -->
        <g id="node1" class="node">
            <title>6</title>
            <path fill="none" stroke="#000000" d="M409.0582,-.5C409.0582,-.5 700.2238,-.5 700.2238,-.5 706.2238,-.5 712.2238,-6.5 712.2238,-12.5 712.2238,-12.5 712.2238,-38.1 712.2238,-38.1 712.2238,-44.1 706.2238,-50.1 700.2238,-50.1 700.2238,-50.1 409.0582,-50.1 409.0582,-50.1 403.0582,-50.1 397.0582,-44.1 397.0582,-38.1 397.0582,-38.1 397.0582,-12.5 397.0582,-12.5 397.0582,-6.5 403.0582,-.5 409.0582,-.5"/>
            <text text-anchor="middle" x="412.8338" y="-21.1" font-family="Times,serif" font-size="14.00" fill="#000000">fib</text>
            <polyline fill="none" stroke="#000000" points="428.6094,-.5 428.6094,-50.1 "/>
            <text text-anchor="middle" x="452.162" y="-33.5" font-family="Times,serif" font-size="14.00" fill="#000000">index</text>
            <polyline fill="none" stroke="#000000" points="428.6094,-25.3 475.7146,-25.3 "/>
            <text text-anchor="middle" x="452.162" y="-8.7" font-family="Times,serif" font-size="14.00" fill="#000000">0</text>
            <polyline fill="none" stroke="#000000" points="475.7146,-.5 475.7146,-50.1 "/>
            <text text-anchor="middle" x="534.8419" y="-33.5" font-family="Times,serif" font-size="14.00" fill="#000000">prev</text>
            <polyline fill="none" stroke="#000000" points="475.7146,-25.3 593.9692,-25.3 "/>
            <text text-anchor="middle" x="534.8419" y="-8.7" font-family="Times,serif" font-size="14.00" fill="#000000">*memmap.fib(nil)</text>
            <polyline fill="none" stroke="#000000" points="593.9692,-.5 593.9692,-50.1 "/>
            <text text-anchor="middle" x="653.0965" y="-33.5" font-family="Times,serif" font-size="14.00" fill="#000000">prevprev</text>
            <polyline fill="none" stroke="#000000" points="593.9692,-25.3 712.2238,-25.3 "/>
            <text text-anchor="middle" x="653.0965" y="-8.7" font-family="Times,serif" font-size="14.00" fill="#000000">*memmap.fib(nil)</text>
        </g>
        <!-- 5 -->
        <g id="node2" class="node">
            <title>5</title>
            <path fill="none" stroke="#000000" d="M242.7479,-87.1C242.7479,-87.1 456.5341,-87.1 456.5341,-87.1 462.5341,-87.1 468.5341,-93.1 468.5341,-99.1 468.5341,-99.1 468.5341,-124.7 468.5341,-124.7 468.5341,-130.7 462.5341,-136.7 456.5341,-136.7 456.5341,-136.7 242.7479,-136.7 242.7479,-136.7 236.7479,-136.7 230.7479,-130.7 230.7479,-124.7 230.7479,-124.7 230.7479,-99.1 230.7479,-99.1 230.7479,-93.1 236.7479,-87.1 242.7479,-87.1"/>
            <text text-anchor="middle" x="246.5235" y="-107.7" font-family="Times,serif" font-size="14.00" fill="#000000">fib</text>
            <polyline fill="none" stroke="#000000" points="262.2991,-87.1 262.2991,-136.7 "/>
            <text text-anchor="middle" x="285.8517" y="-120.1" font-family="Times,serif" font-size="14.00" fill="#000000">index</text>
            <polyline fill="none" stroke="#000000" points="262.2991,-111.9 309.4043,-111.9 "/>
            <text text-anchor="middle" x="285.8517" y="-95.3" font-family="Times,serif" font-size="14.00" fill="#000000">1</text>
            <polyline fill="none" stroke="#000000" points="309.4043,-87.1 309.4043,-136.7 "/>
            <text text-anchor="middle" x="329.8419" y="-107.7" font-family="Times,serif" font-size="14.00" fill="#000000">prev</text>
            <polyline fill="none" stroke="#000000" points="350.2795,-87.1 350.2795,-136.7 "/>
            <text text-anchor="middle" x="409.4068" y="-120.1" font-family="Times,serif" font-size="14.00" fill="#000000">prevprev</text>
            <polyline fill="none" stroke="#000000" points="350.2795,-111.9 468.5341,-111.9 "/>
            <text text-anchor="middle" x="409.4068" y="-95.3" font-family="Times,serif" font-size="14.00" fill="#000000">*memmap.fib(nil)</text>
        </g>
        <!-- 5&#45;&gt;6 -->
        <g id="edge1" class="edge">
            <title>5:f1&#45;&gt;6:name</title>
            <path fill="none" stroke="#000000" d="M329.641,-86.9C329.641,-50.6784 396.6378,-82.5422 410.2465,-60.1504"/>
            <polygon fill="#000000" stroke="#000000" points="413.6798,-60.8438 412.641,-50.3 406.8779,-59.1903 413.6798,-60.8438"/>
        </g>
        <!-- 4 -->
        <g id="node3" class="node">
            <title>4</title>
            <path fill="none" stroke="#000000" d="M295,-173.7C295,-173.7 456.282,-173.7 456.282,-173.7 462.282,-173.7 468.282,-179.7 468.282,-185.7 468.282,-185.7 468.282,-211.3 468.282,-211.3 468.282,-217.3 462.282,-223.3 456.282,-223.3 456.282,-223.3 295,-223.3 295,-223.3 289,-223.3 283,-217.3 283,-211.3 283,-211.3 283,-185.7 283,-185.7 283,-179.7 289,-173.7 295,-173.7"/>
            <text text-anchor="middle" x="298.7756" y="-194.3" font-family="Times,serif" font-size="14.00" fill="#000000">fib</text>
            <polyline fill="none" stroke="#000000" points="314.5512,-173.7 314.5512,-223.3 "/>
            <text text-anchor="middle" x="338.1038" y="-206.7" font-family="Times,serif" font-size="14.00" fill="#000000">index</text>
            <polyline fill="none" stroke="#000000" points="314.5512,-198.5 361.6564,-198.5 "/>
            <text text-anchor="middle" x="338.1038" y="-181.9" font-family="Times,serif" font-size="14.00" fill="#000000">2</text>
            <polyline fill="none" stroke="#000000" points="361.6564,-173.7 361.6564,-223.3 "/>
            <text text-anchor="middle" x="382.094" y="-194.3" font-family="Times,serif" font-size="14.00" fill="#000000">prev</text>
            <polyline fill="none" stroke="#000000" points="402.5316,-173.7 402.5316,-223.3 "/>
            <text text-anchor="middle" x="435.4068" y="-194.3" font-family="Times,serif" font-size="14.00" fill="#000000">prevprev</text>
        </g>
        <!-- 4&#45;&gt;6 -->
        <g id="edge3" class="edge">
            <title>4:f2&#45;&gt;6:name</title>
            <path fill="none" stroke="#000000" d="M435.641,-173.5C435.641,-148.8276 467.3775,-159.6363 477.641,-137.2 486.9962,-116.7493 489.0242,-105.9952 477.641,-86.6 462.9861,-61.6304 424.2116,-77.8988 414.747,-60.1894"/>
            <polygon fill="#000000" stroke="#000000" points="418.1472,-59.3516 412.641,-50.3 411.3007,-60.8097 418.1472,-59.3516"/>
        </g>
        <!-- 4&#45;&gt;5 -->
        <g id="edge2" class="edge">
            <title>4:f1&#45;&gt;5:name</title>
            <path fill="none" stroke="#000000" d="M381.641,-173.5C381.641,-115.2194 262.9887,-188.685 248.1571,-146.8727"/>
            <polygon fill="#000000" stroke="#000000" points="251.6043,-146.2603 246.641,-136.9 244.6838,-147.3125 251.6043,-146.2603"/>
        </g>
        <!-- 3 -->
        <g id="node4" class="node">
            <title>3</title>
            <path fill="none" stroke="#000000" d="M106,-260.3C106,-260.3 267.282,-260.3 267.282,-260.3 273.282,-260.3 279.282,-266.3 279.282,-272.3 279.282,-272.3 279.282,-297.9 279.282,-297.9 279.282,-303.9 273.282,-309.9 267.282,-309.9 267.282,-309.9 106,-309.9 106,-309.9 100,-309.9 94,-303.9 94,-297.9 94,-297.9 94,-272.3 94,-272.3 94,-266.3 100,-260.3 106,-260.3"/>
            <text text-anchor="middle" x="109.7756" y="-280.9" font-family="Times,serif" font-size="14.00" fill="#000000">fib</text>
            <polyline fill="none" stroke="#000000" points="125.5512,-260.3 125.5512,-309.9 "/>
            <text text-anchor="middle" x="149.1038" y="-293.3" font-family="Times,serif" font-size="14.00" fill="#000000">index</text>
            <polyline fill="none" stroke="#000000" points="125.5512,-285.1 172.6564,-285.1 "/>
            <text text-anchor="middle" x="149.1038" y="-268.5" font-family="Times,serif" font-size="14.00" fill="#000000">3</text>
            <polyline fill="none" stroke="#000000" points="172.6564,-260.3 172.6564,-309.9 "/>
            <text text-anchor="middle" x="193.094" y="-280.9" font-family="Times,serif" font-size="14.00" fill="#000000">prev</text>
            <polyline fill="none" stroke="#000000" points="213.5316,-260.3 213.5316,-309.9 "/>
            <text text-anchor="middle" x="246.4068" y="-280.9" font-family="Times,serif" font-size="14.00" fill="#000000">prevprev</text>
        </g>
        <!-- 3&#45;&gt;5 -->
        <g id="edge5" class="edge">
            <title>3:f2&#45;&gt;5:name</title>
            <path fill="none" stroke="#000000" d="M246.641,-260.1C246.641,-208.8736 246.641,-193.5907 246.641,-146.9977"/>
            <polygon fill="#000000" stroke="#000000" points="250.1411,-146.9 246.641,-136.9 243.1411,-146.9 250.1411,-146.9"/>
        </g>
        <!-- 3&#45;&gt;4 -->
        <g id="edge4" class="edge">
            <title>3:f1&#45;&gt;4:name</title>
            <path fill="none" stroke="#000000" d="M192.641,-260.1C192.641,-214.3481 281.9637,-263.751 296.6182,-233.6105"/>
            <polygon fill="#000000" stroke="#000000" points="300.1111,-233.9923 298.641,-223.5 293.2471,-232.619 300.1111,-233.9923"/>
        </g>
        <!-- 2 -->
        <g id="node5" class="node">
            <title>2</title>
            <path fill="none" stroke="#000000" d="M23,-346.9C23,-346.9 184.282,-346.9 184.282,-346.9 190.282,-346.9 196.282,-352.9 196.282,-358.9 196.282,-358.9 196.282,-384.5 196.282,-384.5 196.282,-390.5 190.282,-396.5 184.282,-396.5 184.282,-396.5 23,-396.5 23,-396.5 17,-396.5 11,-390.5 11,-384.5 11,-384.5 11,-358.9 11,-358.9 11,-352.9 17,-346.9 23,-346.9"/>
            <text text-anchor="middle" x="26.7756" y="-367.5" font-family="Times,serif" font-size="14.00" fill="#000000">fib</text>
            <polyline fill="none" stroke="#000000" points="42.5512,-346.9 42.5512,-396.5 "/>
            <text text-anchor="middle" x="66.1038" y="-379.9" font-family="Times,serif" font-size="14.00" fill="#000000">index</text>
            <polyline fill="none" stroke="#000000" points="42.5512,-371.7 89.6564,-371.7 "/>
            <text text-anchor="middle" x="66.1038" y="-355.1" font-family="Times,serif" font-size="14.00" fill="#000000">4</text>
            <polyline fill="none" stroke="#000000" points="89.6564,-346.9 89.6564,-396.5 "/>
            <text text-anchor="middle" x="110.094" y="-367.5" font-family="Times,serif" font-size="14.00" fill="#000000">prev</text>
            <polyline fill="none" stroke="#000000" points="130.5316,-346.9 130.5316,-396.5 "/>
            <text text-anchor="middle" x="163.4068" y="-367.5" font-family="Times,serif" font-size="14.00" fill="#000000">prevprev</text>
        </g>
        <!-- 2&#45;&gt;4 -->
        <g id="edge7" class="edge">
            <title>2:f2&#45;&gt;4:name</title>
            <path fill="none" stroke="#000000" d="M196.641,-371.7C245.7751,-371.7 263.0092,-352.3186 288.641,-310.4 307.0207,-280.3416 300.3001,-265.3234 298.8784,-233.8357"/>
            <polygon fill="#000000" stroke="#000000" points="302.3698,-233.4169 298.641,-223.5 295.3717,-233.5778 302.3698,-233.4169"/>
        </g>
        <!-- 2&#45;&gt;3 -->
        <g id="edge6" class="edge">
            <title>2:f1&#45;&gt;3:name</title>
            <path fill="none" stroke="#000000" d="M109.641,-346.7C109.641,-334.3729 109.641,-329.052 109.641,-320.1186"/>
            <polygon fill="#000000" stroke="#000000" points="113.1411,-320.1 109.641,-310.1 106.1411,-320.1 113.1411,-320.1"/>
        </g>
        <!-- 1 -->
        <g id="node6" class="node">
            <title>1</title>
            <path fill="none" stroke="#000000" d="M12,-433.5C12,-433.5 173.282,-433.5 173.282,-433.5 179.282,-433.5 185.282,-439.5 185.282,-445.5 185.282,-445.5 185.282,-471.1 185.282,-471.1 185.282,-477.1 179.282,-483.1 173.282,-483.1 173.282,-483.1 12,-483.1 12,-483.1 6,-483.1 0,-477.1 0,-471.1 0,-471.1 0,-445.5 0,-445.5 0,-439.5 6,-433.5 12,-433.5"/>
            <text text-anchor="middle" x="15.7756" y="-454.1" font-family="Times,serif" font-size="14.00" fill="#000000">fib</text>
            <polyline fill="none" stroke="#000000" points="31.5512,-433.5 31.5512,-483.1 "/>
            <text text-anchor="middle" x="55.1038" y="-466.5" font-family="Times,serif" font-size="14.00" fill="#000000">index</text>
            <polyline fill="none" stroke="#000000" points="31.5512,-458.3 78.6564,-458.3 "/>
            <text text-anchor="middle" x="55.1038" y="-441.7" font-family="Times,serif" font-size="14.00" fill="#000000">5</text>
            <polyline fill="none" stroke="#000000" points="78.6564,-433.5 78.6564,-483.1 "/>
            <text text-anchor="middle" x="99.094" y="-454.1" font-family="Times,serif" font-size="14.00" fill="#000000">prev</text>
            <polyline fill="none" stroke="#000000" points="119.5316,-433.5 119.5316,-483.1 "/>
            <text text-anchor="middle" x="152.4068" y="-454.1" font-family="Times,serif" font-size="14.00" fill="#000000">prevprev</text>
        </g>
        <!-- 1&#45;&gt;3 -->
        <g id="edge9" class="edge">
            <title>1:f2&#45;&gt;3:name</title>
            <path fill="none" stroke="#000000" d="M185.641,-458.3C236.1624,-458.3 234.3609,-387.9642 205.641,-346.4 182.04,-312.244 121.8753,-347.979 111.255,-320.284"/>
            <polygon fill="#000000" stroke="#000000" points="114.6632,-319.4289 109.641,-310.1 107.7495,-320.5246 114.6632,-319.4289"/>
        </g>
        <!-- 1&#45;&gt;2 -->
        <g id="edge8" class="edge">
            <title>1:f1&#45;&gt;2:name</title>
            <path fill="none" stroke="#000000" d="M98.641,-433.3C98.641,-401.4693 42.0295,-425.5357 29.2035,-406.3692"/>
            <polygon fill="#000000" stroke="#000000" points="32.586,-405.4697 26.641,-396.7 25.8196,-407.2629 32.586,-405.4697"/>
        </g>
    </g>
</svg>